HIERARCHY
ROOT Hips
{
	OFFSET 0.00000 0.00000 0.00000
	CHANNELS 6 Xposition Yposition Zposition Yrotation Zrotation Xrotation 
	JOINT Lumbar
	{
		OFFSET 0 0 0
		CHANNELS 3 Zrotation Xrotation Yrotation
		JOINT Neck
		{
			OFFSET 0.00 0.2701 0.00
			CHANNELS 3 Zrotation Xrotation Yrotation
			End Site
			{
				OFFSET 0.00 0.1379 0.00
			}
		}
		JOINT RightShoulder
		{
			OFFSET 0.0119 0.2289 0.1181
			CHANNELS 3 Zrotation Xrotation Yrotation
			JOINT RightElbow
			{
				OFFSET 0.00 -0.1475 0.00
				CHANNELS 2 Zrotation Yrotation
				JOINT RightWrist
				{
					OFFSET 0.00 -0.1605 0.00
					CHANNELS 2 Zrotation Xrotation
					End Site
					{
						OFFSET 0.0040 -0.1068 0.0006
					}
				}
			}
		}
		JOINT LeftShoulder
		{
			OFFSET 0.0119 0.2289 -0.1181
			CHANNELS 3 Zrotation Xrotation Yrotation
			JOINT LeftElbow
			{
				OFFSET 0.00 -0.1475 0.00
				CHANNELS 2 Zrotation Yrotation
				JOINT LeftWrist
				{
					OFFSET 0.00 -0.1605 0.00
					CHANNELS 2 Zrotation Xrotation
					End Site
					{
						OFFSET 0.0040 -0.1068 -0.0006
					}
				}
			}
		}
	}
	JOINT RightHip
	{
		OFFSET 0.0316 -0.0424 0.0458
		CHANNELS 3 Zrotation Xrotation Yrotation
		JOINT RightKnee
		{
			OFFSET 0.00 -0.2438 0.00
			CHANNELS 1 Zrotation
			JOINT RightAnkle
			{
				OFFSET 0.00 -0.2449 0.00
				CHANNELS 3 Zrotation Xrotation Yrotation
				End Site
				{
					OFFSET 0.1237 -0.0542 0.0051
				}
			}
		}
	}
	JOINT LeftHip
	{
		OFFSET 0.0316 -0.0424 -0.0458
		CHANNELS 3 Zrotation Xrotation Yrotation
		JOINT LeftKnee
		{
			OFFSET 0.00 -0.2438 0.00
			CHANNELS 1 Zrotation
			JOINT LeftAnkle
			{
				OFFSET 0.00 -0.2449 0.00
				CHANNELS 3 Zrotation Xrotation Yrotation
				End Site
				{
					OFFSET 0.1237 -0.0542 -0.0051
				}
			}
		}
	}
}
MOTION
Frames: 16
Frame Time: 0.02
0.00048 -0.00087 0.00094 -174.18086 -28.80613 1.76221 43.79869 -1.29903 -8.03997 -10.97208 4.9229 -1.08318 -19.61536 -3.69026 -17.73679 23.68077 133.59814 17.90863 8.56412 -21.12822 4.27864 6.89027 27.82449 -166.67401 34.76369 -12.96088 28.77055 -2.27901 -7.72867 -19.97133 -5.99878 -2.46834 -3.39843 32.3729 4.51104 2.82461 -24.3927 -6.39307 1.29449 2.85951
0.00022 -0.00064 0.00052 -173.9915 -28.81061 1.83656 43.87319 -1.34438 -8.03617 -10.99296 4.83381 -1.08486 -19.73974 -3.66399 -17.62515 23.90339 133.59613 17.91286 8.54702 -21.22449 4.5344 6.08293 28.13164 -160.39409 32.73696 -11.8684 28.74452 -2.32675 -7.92799 -19.95323 -6.00746 -2.4618 -3.39649 32.3936 4.55101 2.90746 -24.37391 -6.42449 1.2544 2.84107
-4e-05 -0.0004 0.00011 -173.80184 -28.81489 1.91084 43.94746 -1.38963 -8.03225 -11.01394 4.74456 -1.08653 -19.86447 -3.63827 -17.51155 24.12589 133.58458 17.91457 8.52834 -21.32046 4.78946 5.27783 28.43831 -154.13328 30.71637 -10.77927 28.71839 -2.3744 -8.12717 -19.93522 -6.01614 -2.45533 -3.39458 32.41428 4.59085 2.99019 -24.3552 -6.45587 1.21434 2.82264
-0.0003 -0.00017 -0.00031 -173.61299 -28.81934 1.98498 44.02174 -1.43485 -8.02846 -11.03477 4.6557 -1.0882 -19.98857 -3.61218 -17.39977 24.34793 133.5807 17.91829 8.51098 -21.41645 5.04444 4.47292 28.7446 -147.87266 28.69586 -9.69015 28.69241 -2.422 -8.32596 -19.91717 -6.0248 -2.44882 -3.39265 32.43492 4.6307 3.0728 -24.33647 -6.48719 1.17436 2.80425
-0.00056 6e-05 -0.00073 -173.42457 -28.82402 2.05915 44.09624 -1.48014 -8.02479 -11.05548 4.5671 -1.08987 -20.11211 -3.58529 -17.29112 24.56982 133.59085 17.92571 8.49596 -21.51268 5.30009 3.66588 29.05119 -141.59305 26.66928 -8.59769 28.66659 -2.46967 -8.52469 -19.89904 -6.03347 -2.44224 -3.39068 32.4556 4.67067 3.1555 -24.31766 -6.51854 1.13435 2.78585
-0.00082 0.00029 -0.00114 -173.2322 -28.82746 2.13368 44.17001 -1.52531 -8.0203 -11.07702 4.47646 -1.09155 -20.23934 -3.56198 -17.16732 24.7936 133.53427 17.9156 8.46968 -21.60809 5.55389 2.86491 29.35797 -135.37214 24.66141 -7.5156 28.63981 -2.51728 -8.72477 -19.88129 -6.04216 -2.43601 -3.38888 32.47628 4.71025 3.23829 -24.29919 -6.55001 1.0942 2.76737
-0.00108 0.00052 -0.00156 -173.0485 -28.83344 2.20736 44.24519 -1.57069 -8.0176 -11.09678 4.39017 -1.0932 -20.35888 -3.53169 -17.07328 25.01342 133.60948 17.94007 8.46566 -21.70515 5.8111 2.0526 29.66407 -129.04027 22.61817 -6.41391 28.61501 -2.56496 -8.92197 -19.86277 -6.05078 -2.42903 -3.38673 32.49686 4.75058 3.32076 -24.28002 -6.58115 1.05442 2.74908
-0.00134 0.00076 -0.00197 -172.85588 -28.83699 2.28189 44.31902 -1.61586 -8.013 -11.11833 4.29963 -1.0949 -20.48572 -3.50748 -16.95336 25.23669 133.56779 17.93392 8.4419 -21.80048 6.06523 1.2508 29.97073 -122.81016 20.60741 -5.33017 28.58834 -2.61255 -9.12173 -19.84501 -6.0595 -2.42283 -3.38495 32.5177 4.79019 3.40364 -24.26154 -6.61267 1.01422 2.73059
-0.00159 0.00099 -0.00238 -172.65582 -28.8379 2.35724 44.39146 -1.66084 -8.00704 -11.14154 4.20472 -1.09657 -20.62086 -3.4922 -16.79513 25.46519 133.36309 17.88488 8.39058 -21.89459 6.31547 0.46126 30.27856 -116.70401 18.63602 -4.2684 28.55951 -2.6602 -9.32518 -19.82798 -6.0682 -2.41727 -3.38345 32.53819 4.82906 3.4866 -24.24374 -6.6444 0.9738 2.71195
-0.00189 0.00123 -0.00283 -172.50895 -28.855 2.42723 44.47266 -1.70713 -8.01181 -11.15359 4.13744 -1.09816 -20.70637 -3.43004 -16.8372 25.66668 134.0356 18.06612 8.48747 -21.99841 6.58772 -0.40064 30.58115 -109.88318 16.43705 -3.08026 28.54348 -2.70801 -9.5091 -19.80615 -6.07658 -2.40708 -3.37981 32.55867 4.87259 3.56784 -24.22153 -6.67413 0.9355 2.69447
-0.00208 0.00144 -0.00319 -172.24333 -28.83733 2.50889 44.5349 -1.7505 -7.99212 -11.19021 4.01032 -1.10004 -20.89773 -3.46388 -16.46979 25.92311 132.89722 17.77231 8.27849 -22.07998 6.81377 -1.10863 30.89378 -104.5716 14.71907 -2.15882 28.50023 -2.75512 -9.73308 -19.79481 -6.08593 -2.40724 -3.381 32.58048 4.90603 3.65348 -24.20893 -6.7086 0.89221 2.67434
-0.00203 0.00159 -0.00332 -171.7004 -28.72851 2.6201 44.54791 -1.78695 -7.91891 -11.28621 3.72977 -1.10175 -21.37271 -3.78722 -14.86072 26.34825 126.41503 16.07395 7.16598 -22.11417 6.9099 -1.40033 31.24264 -103.42971 14.3269 -1.97542 28.38384 -2.80321 -10.07783 -19.8095 -6.09579 -2.43123 -3.39308 32.59612 4.91336 3.7445 -24.22065 -6.75196 0.83951 2.64844
-0.00187 0.00171 -0.00337 -171.02825 -28.58414 2.74343 44.54107 -1.82012 -7.81825 -11.40811 3.38709 -1.10394 -21.95489 -4.20187 -12.86338 26.82479 118.18747 13.91828 5.75874 -22.12321 6.9603 -1.53619 31.59993 -103.79842 14.41682 -2.05871 28.24015 -2.85004 -10.46099 -19.83524 -6.10714 -2.46645 -3.41047 32.61549 4.91005 3.84068 -24.24246 -6.80086 0.78107 2.61962
-0.00173 0.00184 -0.00345 -170.38476 -28.45304 2.86292 44.54188 -1.8543 -7.72175 -11.52371 3.06585 -1.10653 -22.49293 -4.55803 -11.1194 27.2667 110.99846 12.03647 4.52758 -22.13517 7.03357 -1.73965 31.9478 -103.45696 14.28194 -2.01584 28.10752 -2.89555 -10.81925 -19.85772 -6.11907 -2.4995 -3.42697 32.63885 4.91082 3.93951 -24.26089 -6.84993 0.72239 2.59114
-0.00171 0.002 -0.00356 -169.87193 -28.33339 2.97568 44.54966 -1.89114 -7.66181 -11.6173 2.77337 -1.10645 -23.01336 -4.98715 -9.04561 27.75818 102.75496 9.87073 3.11575 -22.18409 7.09762 -1.95714 32.31951 -103.21694 14.17118 -1.99425 27.97918 -2.94909 -11.20826 -19.87274 -6.12522 -2.52016 -3.43699 32.63587 4.91561 4.01932 -24.27397 -6.88766 0.67548 2.56673
-0.0014 0.00207 -0.00359 -169.05134 -28.18228 3.10499 44.53665 -1.92084 -7.51734 -11.76159 2.40602 -1.11211 -23.59401 -5.28463 -7.57218 28.15621 96.31309 8.19328 2.0131 -22.1487 7.17043 -2.10755 32.64326 -103.1256 14.12567 -1.99178 27.83711 -2.98553 -11.54329 -19.90598 -6.14435 -2.56934 -3.46183 32.69157 4.90845 4.13739 -24.30094 -6.95032 0.603 2.53327
